#!OML:ASF H:\Not Pregnant\Project 1\Capture day 1\Session 1\non-pregnant.ASF
:FULLY-SPECIFIED
:DEGREES
853
root -5.26536 16.2987 34.5283 136.821 -82.9146 -123.754
lowerback -7.59134 1.82728 1.05347
upperback -6.66847 2.13828 1.28194
thorax -2.65686 0.950203 0.847192
lowerneck 9.81057 -7.71652 -32.9798
upperneck 1.6756 -15.6963 34.1677
head 4.60826 -8.99135 17.3151
rclavicle -1.83379e-014 -1.47101e-014
rhumerus -40.9514 27.7929 -105.587
rradius 43.2153
rwrist 15.9157
rhand -7.18656 5.85369
rfingers 7.12502
rthumb 18.6914 -23.2683
lclavicle -1.83379e-014 -1.47101e-014
lhumerus -47.4783 -28.6966 104.575
lradius 45.778
lwrist 29.1737
lhand -12.3552 -22.4367
lfingers 7.12502
lthumb 13.7147 7.09133
rfemur -11.0649 -18.5594 28.8249
rtibia 5.60046
rfoot -14.0726 23.3646
rtoes -12.5758
lfemur -20.4586 9.0976 -13.5164
ltibia 19.1993
lfoot -14.1592 -10.5473
ltoes -14.9191
854
root -5.25727 16.2989 34.5254 137.17 -82.898 -124.146
lowerback -7.55217 1.79925 1.01406
upperback -6.61737 2.10637 1.31063
thorax -2.62728 0.937725 0.896643
lowerneck 9.85347 -7.70565 -33.0028
upperneck 1.56139 -15.6808 34.2442
head 4.57458 -8.98982 17.3615
rclavicle 5.46658e-015 1.86858e-014
rhumerus -40.5602 26.9346 -105.006
rradius 43.1863
rwrist 15.6615
rhand -7.62823 5.6797
rfingers 7.12502
rthumb 18.2665 -23.4826
lclavicle 5.46658e-015 1.86858e-014
lhumerus -46.9663 -27.4843 103.667
lradius 45.5536
lwrist 29.4564
lhand -12.7263 -22.2041
lfingers 7.12502
lthumb 13.357 7.34773
rfemur -11.0909 -18.5124 28.8205
rtibia 5.68027
rfoot -14.1052 23.3409
rtoes -12.6005
lfemur -20.4083 9.10285 -13.5174
ltibia 19.1585
lfoot -14.1221 -10.5088
ltoes -14.8997
855
root -5.24941 16.2991 34.5227 137.53 -82.884 -124.546
lowerback -7.51935 1.77933 0.971646
upperback -6.56799 2.08511 1.33255
thorax -2.59591 0.930492 0.94151
lowerneck 9.91387 -7.69684 -33.0172
upperneck 1.44287 -15.6736 34.3268
head 4.5396 -8.99423 17.4093
rclavicle -1.69712e-014 -5.1684e-015
rhumerus -40.1815 26.0419 -104.423
rradius 43.1358
rwrist 15.4755
rhand -8.03765 5.50189
rfingers 7.12502
rthumb 17.8726 -23.6968
lclavicle -1.69712e-014 -5.1684e-015
lhumerus -46.4723 -26.2537 102.78
lradius 45.2513
lwrist 29.6662
lhand -13.0347 -22.0208
lfingers 7.12502
lthumb 13.0598 7.55036
rfemur -11.131 -18.466 28.8142
rtibia 5.78106
rfoot -14.1357 23.3215
rtoes -12.589
lfemur -20.3569 9.10981 -13.5233
ltibia 19.112
lfoot -14.0845 -10.4748
ltoes -14.8935
856
root -5.24166 16.2994 34.5209 137.977 -82.8755 -125.031
lowerback -7.49028 1.76344 0.932178
upperback -6.52155 2.06876 1.34601
thorax -2.56513 0.925319 0.976323
lowerneck 9.98043 -7.68622 -33.0285
upperneck 1.32628 -15.6662 34.4105
head 4.50377 -8.99927 17.4578
rclavicle -1.03368e-014 -1.11319e-014
rhumerus -39.8284 25.1455 -103.86
rradius 43.0658
rwrist 15.3502
rhand -8.4083 5.31225
rfingers 7.12502
rthumb 17.5159 -23.9187
lclavicle -1.03368e-014 -1.11319e-014
lhumerus -45.9954 -24.9939 101.9
lradius 44.8783
lwrist 29.7857
lhand -13.2788 -21.8682
lfingers 7.12502
lthumb 12.8244 7.71786
rfemur -11.184 -18.4167 28.7942
rtibia 5.89463
rfoot -14.1622 23.3061
rtoes -12.5598
lfemur -20.3067 9.11296 -13.5444
ltibia 19.0612
lfoot -14.0443 -10.4345
ltoes -14.8998
857
root -5.23431 16.2997 34.5195 138.442 -82.8726 -125.53
lowerback -7.46795 1.74721 0.898152
upperback -6.47838 2.05127 1.35604
thorax -2.5337 0.919155 1.00467
lowerneck 10.0518 -7.66938 -33.0494
upperneck 1.21709 -15.6545 34.4974
head 4.46875 -9.00307 17.5118
rclavicle 1.70706e-014 3.97569e-015
rhumerus -39.4946 24.2399 -103.318
rradius 42.9602
rwrist 15.2784
rhand -8.75048 5.09711
rfingers 7.12502
rthumb 17.1866 -24.1628
lclavicle 1.70706e-014 3.97569e-015
lhumerus -45.5449 -23.7101 101.035
lradius 44.4615
lwrist 29.8675
lhand -13.4755 -21.698
lfingers 7.12502
lthumb 12.6348 7.89986
rfemur -11.2402 -18.3707 28.7658
rtibia 6.00875
rfoot -14.1795 23.2999
rtoes -12.5058
lfemur -20.2577 9.10641 -13.5723
ltibia 19.0086
lfoot -14.0035 -10.3862
ltoes -14.9235
858
root -5.22733 16.2998 34.5183 138.834 -82.8652 -125.954
lowerback -7.44956 1.7286 0.878509
upperback -6.43881 2.02955 1.37066
thorax -2.50347 0.910262 1.02957
lowerneck 10.1193 -7.6498 -33.0804
upperneck 1.1219 -15.6419 34.583
head 4.4387 -9.00644 17.5678
rclavicle 8.64713e-015 2.06736e-014
rhumerus -39.1789 23.3388 -102.803
rradius 42.8132
rwrist 15.2205
rhand -9.07872 4.8687
rfingers 7.12502
rthumb 16.8707 -24.4185
lclavicle 8.64713e-015 2.06736e-014
lhumerus -45.1245 -22.4078 100.19
lradius 44.0217
lwrist 29.9593
lhand -13.6674 -21.4882
lfingers 7.12502
lthumb 12.4498 8.12102
rfemur -11.289 -18.3283 28.7448
rtibia 6.10621
rfoot -14.1921 23.2974
rtoes -12.4642
lfemur -20.2136 9.10473 -13.5917
ltibia 18.9602
lfoot -13.9633 -10.348
ltoes -14.9387
859
root -5.2206 16.3 34.5166 139.124 -82.8508 -126.271
lowerback -7.43768 1.71143 0.874934
upperback -6.40355 2.0085 1.38446
thorax -2.47353 0.900937 1.04481
lowerneck 10.1918 -7.62635 -33.1047
upperneck 1.03184 -15.6259 34.6689
head 4.40723 -9.00875 17.6241
rclavicle -1.90585e-014 1.11319e-014
rhumerus -38.8703 22.4141 -102.32
rradius 42.616
rwrist 15.1727
rhand -9.41698 4.62685
rfingers 7.12502
rthumb 16.545 -24.6878
lclavicle -1.90585e-014 1.11319e-014
lhumerus -44.7336 -21.1119 99.3574
lradius 43.5711
lwrist 30.1598
lhand -13.8043 -21.2482
lfingers 7.12502
lthumb 12.3178 8.36895
rfemur -11.3221 -18.2894 28.7393
rtibia 6.16976
rfoot -14.1915 23.3007
rtoes -12.4216
lfemur -20.1811 9.11952 -13.5974
ltibia 18.9207
lfoot -13.9299 -10.3262
ltoes -14.9563
